<?xml version="1.0" encoding="UTF-8"?>
<svg id="Capa_1" data-name="Capa 1" xmlns="http://www.w3.org/2000/svg" viewBox="0 0 87.01 88.25">
  <defs>
    <style>
      .cls-1 {
        fill: #eb5757;
      }
    </style>
  </defs>
  <path className="cls-1" d="M15.81,30.92q14.11,0,18.24-13.3c1.33-4.28,2.26-8.73,4.05-12.81C39.02,2.74,41.42,.05,43.22,0c1.78-.05,4.57,2.52,5.32,4.53,2.53,6.83,4.61,13.87,6.37,20.94,1.09,4.38,3.26,5.83,7.69,5.54,5.97-.38,12.01-.45,17.96,.09,2.32,.21,5.43,1.98,6.35,3.9,.62,1.3-1.49,4.73-3.23,6.15-5.15,4.2-10.65,7.98-16.15,11.71-2.51,1.71-2.95,3.45-1.99,6.31,2.39,7.07,4.64,14.21,6.45,21.45,.5,1.99-.07,5.42-1.43,6.37-1.46,1.02-4.94,.67-6.62-.45-6.07-4.07-11.81-8.64-17.53-13.2-2.22-1.76-3.9-1.79-6.12,0-5.19,4.16-10.59,8.07-15.86,12.13-2.57,1.98-5.11,4.07-8.48,1.79-3.57-2.42-1.84-5.59-.95-8.53,1.92-6.36,3.74-12.76,6-19,1.26-3.48,.44-5.46-2.58-7.44-5.42-3.56-10.78-7.28-15.72-11.45-1.66-1.4-3.02-4.59-2.61-6.57,.3-1.45,3.62-2.85,5.77-3.2,3.24-.53,6.64-.14,9.97-.14Z"/>
</svg>